<svg xmlns="http://www.w3.org/2000/svg" xmlns:xlink="http://www.w3.org/1999/xlink" width="1024" zoomAndPan="magnify" viewBox="0 0 768 767.999994" height="1024" preserveAspectRatio="xMidYMid meet" version="1.0"><defs><clipPath id="657049d4f2"><path d="M 169.152344 438.441406 L 420.679688 438.441406 L 420.679688 678.398438 L 169.152344 678.398438 Z M 169.152344 438.441406 " clip-rule="nonzero"/></clipPath><clipPath id="059c355db3"><path d="M 438 387.363281 L 689.667969 387.363281 L 689.667969 627.835938 L 438 627.835938 Z M 438 387.363281 " clip-rule="nonzero"/></clipPath><clipPath id="9b178bd6cc"><path d="M 78.417969 327 L 235 327 L 235 477 L 78.417969 477 Z M 78.417969 327 " clip-rule="nonzero"/></clipPath></defs><g clip-path="url(#657049d4f2)"><path fill="#fed89f" d="M 420.589844 558.472656 C 420.589844 570.765625 395.867188 579.003906 392.265625 590.09375 C 388.527344 601.59375 403.550781 622.753906 396.582031 632.324219 C 389.542969 641.988281 364.71875 634.207031 355.046875 641.242188 C 345.46875 648.203125 345.242188 674.25 333.738281 677.980469 C 322.636719 681.578125 307.1875 660.765625 294.886719 660.765625 C 282.585938 660.765625 267.132812 681.578125 256.035156 677.980469 C 244.53125 674.25 244.300781 648.207031 234.730469 641.242188 C 225.058594 634.207031 200.226562 641.988281 193.191406 632.324219 C 186.222656 622.753906 201.246094 601.59375 197.511719 590.09375 C 193.910156 579.003906 169.183594 570.765625 169.183594 558.472656 C 169.183594 546.179688 193.910156 537.941406 197.511719 526.84375 C 201.246094 515.351562 186.222656 494.1875 193.191406 484.617188 C 200.226562 474.953125 225.058594 482.730469 234.730469 475.699219 C 244.300781 468.730469 244.53125 442.695312 256.035156 438.964844 C 267.136719 435.363281 282.585938 456.175781 294.886719 456.175781 C 307.1875 456.175781 322.636719 435.363281 333.738281 438.964844 C 345.242188 442.695312 345.46875 468.734375 355.046875 475.699219 C 364.71875 482.734375 389.542969 474.953125 396.582031 484.617188 C 403.554688 494.1875 388.527344 515.351562 392.265625 526.847656 C 395.867188 537.941406 420.589844 546.179688 420.589844 558.472656 " fill-opacity="1" fill-rule="nonzero"/></g><g clip-path="url(#059c355db3)"><path fill="#fed89f" d="M 689.683594 507.527344 C 689.683594 519.816406 664.96875 528.058594 661.363281 539.148438 C 657.625 550.644531 672.648438 571.804688 665.679688 581.378906 C 658.640625 591.042969 633.8125 583.261719 624.140625 590.296875 C 614.566406 597.257812 614.339844 623.300781 602.832031 627.03125 C 591.734375 630.632812 576.289062 609.820312 563.984375 609.820312 C 551.679688 609.820312 536.226562 630.632812 525.128906 627.03125 C 513.628906 623.300781 513.394531 597.261719 503.828125 590.296875 C 494.15625 583.261719 469.328125 591.042969 462.289062 581.378906 C 455.316406 571.804688 470.34375 550.644531 466.609375 539.148438 C 463.003906 528.058594 438.285156 519.816406 438.285156 507.527344 C 438.285156 495.230469 463.003906 486.996094 466.609375 475.898438 C 470.34375 464.402344 455.316406 443.242188 462.289062 433.671875 C 469.328125 424.003906 494.15625 431.785156 503.828125 424.753906 C 513.394531 417.785156 513.628906 391.75 525.128906 388.015625 C 536.234375 384.417969 551.679688 405.230469 563.984375 405.230469 C 576.289062 405.230469 591.734375 384.417969 602.832031 388.015625 C 614.339844 391.75 614.566406 417.789062 624.140625 424.753906 C 633.8125 431.789062 658.640625 424.007812 665.679688 433.671875 C 672.652344 443.242188 657.625 464.402344 661.363281 475.902344 C 664.96875 486.996094 689.683594 495.230469 689.683594 507.527344 " fill-opacity="1" fill-rule="nonzero"/></g><path fill="#fed89f" d="M 687.296875 240.890625 C 687.296875 253.179688 662.582031 261.417969 658.972656 272.511719 C 655.234375 284.007812 670.257812 305.167969 663.292969 314.738281 C 656.253906 324.402344 631.425781 316.625 621.753906 323.65625 C 612.175781 330.621094 611.953125 356.664062 600.445312 360.398438 C 589.347656 363.996094 573.902344 343.183594 561.597656 343.183594 C 549.292969 343.183594 533.839844 363.996094 522.742188 360.398438 C 511.242188 356.664062 511.007812 330.625 501.441406 323.65625 C 491.769531 316.625 466.941406 324.402344 459.902344 314.738281 C 452.929688 305.167969 467.957031 284.007812 464.222656 272.511719 C 460.617188 261.417969 435.894531 253.179688 435.894531 240.890625 C 435.894531 228.597656 460.617188 220.355469 464.222656 209.261719 C 467.957031 197.769531 452.929688 176.601562 459.902344 167.03125 C 466.941406 157.367188 491.769531 165.148438 501.441406 158.117188 C 511.007812 151.148438 511.242188 125.113281 522.742188 121.382812 C 533.847656 117.78125 549.292969 138.59375 561.597656 138.59375 C 573.902344 138.59375 589.347656 117.78125 600.445312 121.382812 C 611.953125 125.113281 612.175781 151.152344 621.753906 158.117188 C 631.425781 165.152344 656.253906 157.371094 663.292969 167.035156 C 670.261719 176.601562 655.234375 197.769531 658.972656 209.265625 C 662.582031 220.355469 687.296875 228.597656 687.296875 240.890625 " fill-opacity="1" fill-rule="nonzero"/><path fill="#fed89f" d="M 307.457031 230.929688 C 307.457031 239.78125 289.652344 245.714844 287.054688 253.703125 C 284.363281 261.984375 295.183594 277.21875 290.164062 284.113281 C 285.097656 291.070312 267.214844 285.472656 260.253906 290.539062 C 253.355469 295.550781 253.195312 314.308594 244.902344 316.996094 C 236.914062 319.585938 225.789062 304.597656 216.929688 304.597656 C 208.070312 304.597656 196.941406 319.585938 188.945312 316.996094 C 180.664062 314.308594 180.5 295.554688 173.605469 290.539062 C 166.640625 285.472656 148.761719 291.070312 143.691406 284.113281 C 138.671875 277.21875 149.492188 261.984375 146.804688 253.703125 C 144.207031 245.714844 126.402344 239.78125 126.402344 230.929688 C 126.402344 222.074219 144.207031 216.140625 146.804688 208.15625 C 149.492188 199.875 138.671875 184.632812 143.691406 177.742188 C 148.761719 170.78125 166.640625 176.382812 173.605469 171.320312 C 180.5 166.304688 180.664062 147.550781 188.945312 144.863281 C 196.945312 142.269531 208.070312 157.261719 216.929688 157.261719 C 225.789062 157.261719 236.914062 142.269531 244.902344 144.863281 C 253.195312 147.550781 253.355469 166.304688 260.253906 171.320312 C 267.214844 176.386719 285.097656 170.78125 290.164062 177.742188 C 295.1875 184.632812 284.363281 199.875 287.054688 208.15625 C 289.652344 216.140625 307.457031 222.074219 307.457031 230.929688 " fill-opacity="1" fill-rule="nonzero"/><path fill="#fed89f" d="M 456.121094 364.527344 C 454.128906 373.152344 435.445312 374.9375 431.121094 382.140625 C 426.636719 389.605469 433.753906 406.878906 427.316406 412.46875 C 420.8125 418.113281 404.644531 408.640625 396.722656 412.015625 C 388.871094 415.347656 384.5 433.585938 375.816406 434.347656 C 367.445312 435.074219 359.976562 417.976562 351.34375 415.984375 C 342.710938 413.996094 328.496094 426.097656 321.289062 421.78125 C 313.824219 417.300781 317.878906 398.992188 312.289062 392.554688 C 306.644531 386.054688 287.960938 387.496094 284.585938 379.578125 C 281.246094 371.730469 295.214844 359.3125 294.453125 350.644531 C 293.722656 342.273438 277.707031 332.492188 279.699219 323.867188 C 281.6875 315.242188 300.371094 313.457031 304.699219 306.257812 C 309.179688 298.792969 302.0625 281.511719 308.503906 275.921875 C 315.007812 270.277344 331.171875 279.753906 339.097656 276.386719 C 346.941406 273.046875 351.320312 254.808594 359.992188 254.050781 C 368.371094 253.316406 375.839844 270.421875 384.472656 272.414062 C 393.109375 274.402344 407.316406 262.292969 414.519531 266.617188 C 421.992188 271.097656 417.933594 289.40625 423.527344 295.84375 C 429.171875 302.34375 447.859375 300.898438 451.230469 308.820312 C 454.578125 316.660156 440.601562 329.082031 441.363281 337.757812 C 442.097656 346.121094 458.109375 355.902344 456.121094 364.527344 " fill-opacity="1" fill-rule="nonzero"/><path fill="#f5dbb8" d="M 268.957031 230.570312 C 268.957031 251.980469 251.585938 269.339844 230.160156 269.339844 C 208.734375 269.339844 247.648438 251.980469 247.648438 230.570312 C 247.648438 209.15625 208.734375 191.792969 230.160156 191.792969 C 251.585938 191.792969 268.957031 209.15625 268.957031 230.570312 " fill-opacity="1" fill-rule="nonzero"/><path fill="#f5dbb8" d="M 643.269531 512.355469 C 643.269531 549.757812 612.933594 580.074219 575.511719 580.074219 C 538.089844 580.074219 606.050781 549.757812 606.050781 512.355469 C 606.050781 474.957031 538.089844 444.640625 575.511719 444.640625 C 612.933594 444.640625 643.269531 474.957031 643.269531 512.355469 " fill-opacity="1" fill-rule="nonzero"/><path fill="#f5dbb8" d="M 400.015625 320.835938 C 415.136719 336.003906 415.089844 360.554688 399.910156 375.667969 C 384.726562 390.777344 400.039062 351.039062 384.917969 335.863281 C 369.796875 320.691406 329.96875 335.835938 345.148438 320.726562 C 360.332031 305.613281 384.894531 305.660156 400.015625 320.835938 " fill-opacity="1" fill-rule="nonzero"/><path fill="#f5dbb8" d="M 528.609375 305.953125 C 492.367188 288.074219 477.488281 244.21875 495.375 207.996094 C 513.265625 171.777344 510.160156 252.046875 546.402344 269.925781 C 582.644531 287.804688 644.511719 236.519531 626.621094 272.738281 C 608.734375 308.960938 564.851562 323.828125 528.609375 305.953125 " fill-opacity="1" fill-rule="nonzero"/><path fill="#f5dbb8" d="M 255.714844 501.644531 C 278.925781 484.390625 311.730469 489.210938 328.992188 512.40625 C 346.253906 535.601562 296.09375 507.464844 272.882812 524.714844 C 249.671875 541.964844 262.207031 598.074219 244.945312 574.878906 C 227.683594 551.683594 232.503906 518.894531 255.714844 501.644531 " fill-opacity="1" fill-rule="nonzero"/><g clip-path="url(#9b178bd6cc)"><path fill="#fed89f" d="M 234.730469 401.707031 C 234.730469 409.347656 219.359375 414.472656 217.117188 421.367188 C 214.792969 428.515625 224.132812 441.671875 219.800781 447.621094 C 215.425781 453.628906 199.988281 448.796875 193.976562 453.167969 C 188.019531 457.496094 187.882812 473.691406 180.726562 476.011719 C 173.828125 478.246094 164.222656 465.308594 156.570312 465.308594 C 148.921875 465.308594 139.316406 478.246094 132.414062 476.011719 C 125.261719 473.691406 125.121094 457.5 119.171875 453.167969 C 113.15625 448.796875 97.71875 453.628906 93.34375 447.621094 C 89.007812 441.671875 98.351562 428.515625 96.03125 421.367188 C 93.789062 414.472656 78.417969 409.347656 78.417969 401.707031 C 78.417969 394.0625 93.789062 388.9375 96.03125 382.042969 C 98.351562 374.894531 89.007812 361.734375 93.34375 355.785156 C 97.71875 349.773438 113.15625 354.613281 119.171875 350.242188 C 125.121094 345.914062 125.261719 329.722656 132.414062 327.402344 C 139.320312 325.160156 148.921875 338.101562 156.570312 338.101562 C 164.222656 338.101562 173.828125 325.160156 180.726562 327.402344 C 187.882812 329.722656 188.019531 345.914062 193.976562 350.242188 C 199.988281 354.617188 215.425781 349.78125 219.800781 355.785156 C 224.136719 361.734375 214.792969 374.894531 217.117188 382.042969 C 219.359375 388.9375 234.730469 394.0625 234.730469 401.707031 " fill-opacity="1" fill-rule="nonzero"/></g><path fill="#f5dbb8" d="M 201.492188 401.394531 C 201.492188 419.878906 186.496094 434.867188 167.996094 434.867188 C 149.496094 434.867188 183.089844 419.878906 183.089844 401.394531 C 183.089844 382.90625 149.496094 367.917969 167.996094 367.917969 C 186.496094 367.917969 201.492188 382.90625 201.492188 401.394531 " fill-opacity="1" fill-rule="nonzero"/><path fill="#fed89f" d="M 451.847656 165.789062 C 451.847656 173.429688 436.476562 178.554688 434.234375 185.453125 C 431.910156 192.601562 441.25 205.753906 436.921875 211.707031 C 432.542969 217.710938 417.105469 212.878906 411.09375 217.253906 C 405.140625 221.578125 405 237.773438 397.84375 240.09375 C 390.945312 242.328125 381.339844 229.390625 373.691406 229.390625 C 366.042969 229.390625 356.433594 242.328125 349.53125 240.09375 C 342.382812 237.773438 342.238281 221.582031 336.289062 217.253906 C 330.273438 212.878906 314.839844 217.710938 310.460938 211.707031 C 306.125 205.753906 315.46875 192.601562 313.148438 185.453125 C 310.90625 178.554688 295.535156 173.429688 295.535156 165.789062 C 295.535156 158.144531 310.90625 153.019531 313.148438 146.125 C 315.46875 138.976562 306.125 125.816406 310.460938 119.871094 C 314.839844 113.859375 330.273438 118.695312 336.289062 114.324219 C 342.238281 109.996094 342.382812 93.804688 349.53125 91.480469 C 356.4375 89.242188 366.042969 102.1875 373.691406 102.1875 C 381.339844 102.1875 390.945312 89.242188 397.84375 91.480469 C 405 93.804688 405.140625 109.996094 411.09375 114.324219 C 417.105469 118.699219 432.542969 113.863281 436.921875 119.871094 C 441.257812 125.816406 431.910156 138.976562 434.234375 146.125 C 436.476562 153.019531 451.847656 158.144531 451.847656 165.789062 " fill-opacity="1" fill-rule="nonzero"/><path fill="#f5dbb8" d="M 418.609375 165.476562 C 418.609375 183.964844 403.613281 198.953125 385.113281 198.953125 C 366.613281 198.953125 400.210938 183.964844 400.210938 165.476562 C 400.210938 146.988281 366.613281 132 385.113281 132 C 403.613281 132 418.609375 146.988281 418.609375 165.476562 " fill-opacity="1" fill-rule="nonzero"/></svg>