<svg xmlns="http://www.w3.org/2000/svg" xmlns:xlink="http://www.w3.org/1999/xlink" width="1024" zoomAndPan="magnify" viewBox="0 0 768 767.999994" height="1024" preserveAspectRatio="xMidYMid meet" version="1.0"><defs><clipPath id="3a704038a1"><path d="M 218.378906 97.765625 L 549.878906 97.765625 L 549.878906 654 L 218.378906 654 Z M 218.378906 97.765625 " clip-rule="nonzero"/></clipPath><clipPath id="b37150e020"><path d="M 241 210 L 527 210 L 527 691.015625 L 241 691.015625 Z M 241 210 " clip-rule="nonzero"/></clipPath></defs><g clip-path="url(#3a704038a1)"><path fill="#cfd3ff" d="M 384.117188 97.765625 C 453.03125 97.765625 521.933594 115.773438 549.5 151.796875 L 549.5 584.097656 C 472.355469 676.585938 291.160156 676.585938 218.730469 584.097656 L 218.730469 151.796875 C 246.296875 115.773438 315.199219 97.765625 384.117188 97.765625 Z M 384.117188 130.367188 C 375.777344 130.367188 369.03125 137.121094 369.03125 145.449219 L 369.089844 145.589844 L 336.308594 145.589844 C 332.1875 145.589844 328.445312 147.265625 325.75 149.96875 L 321.378906 160.53125 L 325.75 171.089844 C 328.457031 173.792969 332.1875 175.46875 336.308594 175.46875 L 431.910156 175.46875 C 440.167969 175.46875 446.855469 168.789062 446.855469 160.53125 C 446.855469 152.285156 440.167969 145.589844 431.910156 145.589844 L 399.128906 145.589844 L 399.1875 145.449219 C 399.199219 137.121094 392.453125 130.367188 384.117188 130.367188 Z M 384.117188 130.367188 " fill-opacity="1" fill-rule="evenodd"/></g><g clip-path="url(#b37150e020)"><path fill="#d83335" d="M 361.976562 210.421875 C 368.449219 210.457031 374.730469 210.539062 380.683594 210.539062 C 428.289062 210.539062 502.570312 205.238281 526.945312 263.316406 L 526.945312 573.125 C 505.019531 591.3125 466.058594 603.117188 423.417969 608.054688 L 403.40625 609.265625 L 403.40625 691.015625 L 364.824219 691.015625 L 364.824219 609.929688 L 337.164062 608.585938 C 295.542969 604.136719 259.125 592.476562 241.273438 573.109375 L 241.273438 263.304688 C 261.609375 212.488281 316.636719 210.195312 361.976562 210.421875 Z M 361.976562 210.421875 " fill-opacity="1" fill-rule="evenodd"/></g></svg>