<svg xmlns="http://www.w3.org/2000/svg" xmlns:xlink="http://www.w3.org/1999/xlink" width="1024" zoomAndPan="magnify" viewBox="0 0 768 767.999994" height="1024" preserveAspectRatio="xMidYMid meet" version="1.0"><defs><clipPath id="e338337e34"><path d="M 465.660156 395 L 686.453125 395 L 686.453125 605.574219 L 465.660156 605.574219 Z M 465.660156 395 " clip-rule="nonzero"/></clipPath><clipPath id="40ec38e8f0"><path d="M 169.023438 525.457031 L 446.859375 525.457031 L 446.859375 670.058594 L 169.023438 670.058594 Z M 169.023438 525.457031 " clip-rule="nonzero"/></clipPath></defs><path fill="#ea2d2d" d="M 163.660156 369.769531 C 210.90625 365.964844 252.320312 401.484375 256.15625 449.109375 C 259.992188 496.742188 224.792969 538.441406 177.550781 542.246094 C 130.300781 546.054688 88.890625 510.535156 85.054688 462.902344 C 81.21875 415.273438 116.410156 373.582031 163.660156 369.769531 " fill-opacity="1" fill-rule="nonzero"/><path fill="#c11010" d="M 138.730469 458.574219 C 136.4375 430.105469 154.085938 404.664062 179.886719 396.183594 C 175.304688 395.464844 170.574219 395.25 165.746094 395.636719 C 132.671875 398.304688 108.035156 427.496094 110.722656 460.835938 C 113.40625 494.175781 142.394531 519.039062 175.464844 516.375 C 180.292969 515.984375 184.933594 515.015625 189.339844 513.570312 C 162.511719 509.332031 141.023438 487.054688 138.730469 458.574219 " fill-opacity="1" fill-rule="nonzero"/><path fill="#ea2d2d" d="M 503.078125 195.671875 C 498.742188 242.894531 456.671875 277.640625 409.113281 273.265625 C 361.550781 268.902344 326.507812 227.066406 330.84375 179.84375 C 335.179688 132.617188 377.253906 97.878906 424.8125 102.242188 C 472.367188 106.617188 507.410156 148.441406 503.078125 195.671875 " fill-opacity="1" fill-rule="nonzero"/><path fill="#c11010" d="M 419.886719 155.898438 C 448.316406 158.511719 470.347656 180.257812 474.285156 207.140625 C 475.78125 202.753906 476.796875 198.121094 477.242188 193.296875 C 480.277344 160.238281 455.746094 130.957031 422.457031 127.898438 C 389.164062 124.847656 359.714844 149.164062 356.679688 182.21875 C 356.238281 187.046875 356.402344 191.78125 357.070312 196.375 C 365.832031 170.660156 391.457031 153.289062 419.886719 155.898438 " fill-opacity="1" fill-rule="nonzero"/><path fill="#ea2d2d" d="M 623.21875 243.992188 C 631.390625 268.679688 627.800781 298.632812 620.207031 322.941406 C 612.214844 347.820312 600.210938 367.046875 582.460938 383.378906 C 564.796875 399.625 543.765625 412.59375 522.109375 425.636719 C 500.527344 438.015625 478.316406 450.460938 460.191406 450.445312 C 442.335938 450.5625 431.28125 435.21875 432.4375 405.171875 C 433.480469 375.828125 446.71875 331.785156 474.695312 290.664062 C 502.152344 249.304688 537.75 221.863281 565.808594 214.726562 C 594.285156 206.976562 615.242188 219.53125 623.21875 243.992188 " fill-opacity="1" fill-rule="nonzero"/><path fill="#c11010" d="M 508.503906 319.75 C 538.292969 278.671875 578.449219 265.214844 596.769531 283.542969 C 595.90625 278.546875 594.46875 273.765625 592.300781 269.460938 C 578.875 237.949219 528.496094 250.070312 490.851562 304.574219 C 453.476562 359.035156 452.90625 411.34375 477.71875 414.574219 C 481.289062 415.402344 485.1875 415.417969 489.28125 414.859375 C 474.105469 403.28125 478.667969 360.714844 508.503906 319.75 " fill-opacity="1" fill-rule="nonzero"/><path fill="#ea2d2d" d="M 258.984375 325.160156 C 284.550781 285.683594 329.433594 314.863281 379.636719 377.664062 C 430.1875 440.875 462.863281 488.289062 434.265625 499.136719 C 406.207031 509.777344 338.371094 502.914062 291.414062 468.5625 C 243.335938 434.542969 233.648438 364.105469 258.984375 325.160156 " fill-opacity="1" fill-rule="nonzero"/><path fill="#c11010" d="M 319.089844 440.046875 C 290.082031 414.429688 279.636719 375.574219 287.988281 348.71875 C 284.761719 350.558594 281.859375 353.175781 279.371094 356.597656 C 262.214844 381.019531 270.929688 428.105469 304.640625 454.929688 C 337.929688 481.914062 384.054688 489.332031 402.554688 478.882812 C 405.222656 477.1875 407.101562 475.046875 408.269531 472.5 C 385.992188 475.757812 347.832031 465.828125 319.089844 440.046875 " fill-opacity="1" fill-rule="nonzero"/><g clip-path="url(#e338337e34)"><path fill="#ea2d2d" d="M 465.695312 562.515625 C 466.371094 537.859375 479.757812 512.25 493.503906 492.464844 C 507.910156 472.28125 522.660156 457.933594 541.359375 446.441406 C 559.863281 434.964844 580.574219 425.8125 602.070312 415.238281 C 623.40625 405.386719 645.53125 394.105469 663.003906 395.148438 C 680.046875 395.921875 690.28125 412.617188 685.101562 443.117188 C 680.195312 472.808594 659.875 516.292969 622.308594 551.839844 C 585.488281 588.015625 541.46875 605.703125 511.683594 605.125 C 481.128906 605.050781 464.804688 586.707031 465.695312 562.515625 " fill-opacity="1" fill-rule="nonzero"/></g><path fill="#c11010" d="M 596.910156 518.78125 C 558.621094 553.625 514.980469 556.039062 503.535156 534.449219 C 502.835938 539.214844 502.714844 543.9375 503.453125 548.414062 C 505.90625 580.671875 560.261719 582.988281 610.167969 536.03125 C 659.609375 488.941406 666.523438 434.84375 643.074219 429.96875 C 639.769531 428.835938 636.0625 428.503906 632.109375 428.691406 C 645.433594 441.273438 635.21875 484.082031 596.910156 518.78125 " fill-opacity="1" fill-rule="nonzero"/><g clip-path="url(#40ec38e8f0)"><path fill="#ea2d2d" d="M 437.320312 617.871094 C 422.269531 639.078125 396.011719 653.921875 371.9375 662.179688 C 347.164062 670.464844 324.570312 672.167969 300.90625 667.519531 C 277.367188 662.894531 254.464844 653.609375 231.140625 643.863281 C 208.390625 633.792969 185.214844 623.246094 174.503906 608.621094 C 163.835938 594.292969 169.65625 576.296875 194.542969 559.441406 C 218.800781 542.914062 262.117188 527.519531 311.800781 525.738281 C 361.375 523.394531 404.554688 535.859375 426.910156 554.261719 C 450.007812 572.636719 452.304688 596.964844 437.320312 617.871094 " fill-opacity="1" fill-rule="nonzero"/></g><path fill="#c11010" d="M 308.386719 570.214844 C 359.113281 569.925781 393.71875 594.339844 389.800781 619.964844 C 393.320312 616.304688 396.316406 612.320312 398.5 608.023438 C 415.9375 578.539062 376.347656 545.089844 310.164062 547.003906 C 244.167969 549.097656 201.691406 579.601562 213.773438 601.519531 C 215.222656 604.894531 217.519531 608.039062 220.390625 611.019531 C 220.734375 591.925781 257.726562 570.40625 308.386719 570.214844 " fill-opacity="1" fill-rule="nonzero"/><path fill="#ea2d2d" d="M 315.902344 188.515625 C 350.390625 220.480469 313.964844 259.714844 243.519531 298.445312 C 172.617188 337.441406 120.332031 361.523438 114.542969 331.472656 C 108.875 301.992188 127.261719 236.304688 169.132812 195.90625 C 210.871094 154.34375 281.894531 156.871094 315.902344 188.515625 " fill-opacity="1" fill-rule="nonzero"/><path fill="#c11010" d="M 192.464844 228.074219 C 222.667969 203.871094 262.71875 200.230469 287.730469 213.066406 C 286.464844 209.570312 284.390625 206.261719 281.445312 203.222656 C 260.34375 182.128906 212.476562 182.640625 180.292969 211.28125 C 148.011719 239.46875 132.800781 283.664062 139.917969 303.6875 C 141.136719 306.609375 142.914062 308.828125 145.230469 310.417969 C 145.839844 287.898438 162.152344 251.988281 192.464844 228.074219 " fill-opacity="1" fill-rule="nonzero"/></svg>