<svg xmlns="http://www.w3.org/2000/svg" xmlns:xlink="http://www.w3.org/1999/xlink" width="1024" zoomAndPan="magnify" viewBox="0 0 768 767.999994" height="1024" preserveAspectRatio="xMidYMid meet" version="1.0"><defs><clipPath id="1d3678acc5"><path d="M 322 430 L 446 430 L 446 674.496094 L 322 674.496094 Z M 322 430 " clip-rule="nonzero"/></clipPath><clipPath id="c6ce2b1bc8"><path d="M 299.683594 135 L 468.433594 135 L 468.433594 296 L 299.683594 296 Z M 299.683594 135 " clip-rule="nonzero"/></clipPath><clipPath id="e5ee8db926"><path d="M 299.683594 93.246094 L 468.433594 93.246094 L 468.433594 153 L 299.683594 153 Z M 299.683594 93.246094 " clip-rule="nonzero"/></clipPath></defs><g clip-path="url(#1d3678acc5)"><path fill="#c84242" d="M 445.417969 452.761719 L 445.417969 615.128906 C 445.417969 647.742188 417.949219 674.171875 384.058594 674.171875 C 350.167969 674.171875 322.699219 647.742188 322.699219 615.128906 L 322.699219 452.761719 C 357.820312 424.734375 397.71875 421.820312 445.289062 452.761719 Z M 445.417969 452.761719 " fill-opacity="1" fill-rule="nonzero"/></g><path fill="#ef9d26" d="M 445.417969 295.308594 L 445.417969 452.761719 L 322.699219 452.761719 L 322.699219 295.308594 L 322.746094 295.308594 C 357.375 251.066406 398.265625 251.085938 445.417969 295.308594 Z M 445.417969 295.308594 " fill-opacity="1" fill-rule="nonzero"/><g clip-path="url(#c6ce2b1bc8)"><path fill="#d6eae8" d="M 463.195312 157.660156 C 459.949219 154.546875 455.472656 152.617188 450.539062 152.617188 L 426.246094 135.714844 L 341.871094 135.714844 L 317.578125 152.617188 C 307.699219 152.617188 299.683594 160.328125 299.683594 169.835938 C 299.683594 174.597656 301.6875 178.894531 304.921875 182.007812 C 308.167969 185.132812 312.644531 187.054688 317.578125 187.054688 L 322.699219 187.054688 L 322.699219 295.308594 L 445.417969 295.308594 L 445.417969 187.054688 L 450.539062 187.054688 C 460.417969 187.054688 468.433594 179.351562 468.433594 169.835938 C 468.433594 165.082031 466.429688 160.773438 463.195312 157.660156 Z M 463.195312 157.660156 " fill-opacity="1" fill-rule="nonzero"/></g><g clip-path="url(#e5ee8db926)"><path fill="#c2e6f9" d="M 468.433594 93.574219 L 468.433594 137.867188 C 468.433594 146.015625 461.566406 152.617188 453.105469 152.617188 L 315.011719 152.617188 C 306.550781 152.617188 299.683594 146.015625 299.683594 137.867188 L 299.683594 93.574219 Z M 468.433594 93.574219 " fill-opacity="1" fill-rule="nonzero"/></g><path fill="#8ecaef" d="M 345.703125 152.617188 L 422.414062 152.617188 L 422.414062 201.816406 L 345.703125 201.816406 Z M 345.703125 152.617188 " fill-opacity="1" fill-rule="nonzero"/><path fill="#ffc05a" d="M 361.042969 324.828125 C 361.042969 330.261719 356.472656 334.675781 350.824219 334.675781 C 345.175781 334.675781 340.59375 330.261719 340.59375 324.828125 C 340.59375 319.398438 345.175781 314.984375 350.824219 314.984375 C 356.472656 314.984375 361.042969 319.398438 361.042969 324.828125 Z M 361.042969 324.828125 " fill-opacity="1" fill-rule="nonzero"/><path fill="#ffc05a" d="M 376.382812 364.195312 C 376.382812 369.628906 371.8125 374.027344 366.164062 374.027344 C 360.515625 374.027344 355.933594 369.628906 355.933594 364.195312 C 355.933594 358.753906 360.515625 354.351562 366.164062 354.351562 C 371.8125 354.351562 376.382812 358.753906 376.382812 364.195312 Z M 376.382812 364.195312 " fill-opacity="1" fill-rule="nonzero"/></svg>