<svg xmlns="http://www.w3.org/2000/svg" xmlns:xlink="http://www.w3.org/1999/xlink" width="1024" zoomAndPan="magnify" viewBox="0 0 768 767.999994" height="1024" preserveAspectRatio="xMidYMid meet" version="1.0"><defs><clipPath id="381afab177"><path d="M 391 404.050781 L 651 404.050781 L 651 707.308594 L 391 707.308594 Z M 391 404.050781 " clip-rule="nonzero"/></clipPath><clipPath id="3c425325ae"><path d="M 384 141.023438 L 712.308594 141.023438 L 712.308594 429.640625 L 384 429.640625 Z M 384 141.023438 " clip-rule="nonzero"/></clipPath></defs><g clip-path="url(#381afab177)"><path fill="#fed187" d="M 517.648438 507.21875 C 517.648438 507.21875 551.882812 440.578125 545.976562 412.046875 C 540.070312 383.503906 571.660156 438.117188 549.375 494.789062 C 527.089844 551.472656 559.574219 532.582031 595.28125 491.640625 C 630.976562 450.707031 583.371094 556.433594 553.71875 540.597656 C 553.71875 540.597656 571.164062 555.078125 634.125 570.59375 C 697.082031 586.113281 560.84375 570.59375 560.84375 570.59375 C 560.84375 570.59375 594.574219 615.394531 595.28125 652.355469 C 595.980469 689.316406 568.015625 606.617188 545.976562 604.238281 C 523.9375 601.855469 500.421875 658.722656 506.09375 676.851562 C 511.761719 694.984375 469.746094 675.386719 488.269531 619.8125 C 495.347656 598.574219 425.992188 716.792969 416.90625 706.707031 C 397.550781 685.207031 470.417969 634.960938 457.835938 604.238281 C 445.238281 573.519531 399.703125 616.851562 394.867188 604.238281 C 390.035156 591.628906 432.648438 555.078125 432.648438 555.078125 C 432.648438 555.078125 376.585938 487.566406 394.867188 444.070312 C 400.269531 431.222656 401.164062 503.910156 445.238281 507.21875 C 489.316406 510.542969 456.757812 416.507812 467.277344 412.046875 C 477.792969 407.574219 506.09375 491.640625 506.09375 491.640625 C 506.09375 491.640625 510.507812 444.460938 519.277344 444.070312 C 528.042969 443.679688 517.648438 507.21875 517.648438 507.21875 " fill-opacity="1" fill-rule="nonzero"/></g><g clip-path="url(#3c425325ae)"><path fill="#fed187" d="M 607.5625 279.277344 C 607.5625 279.277344 682.464844 279.664062 705.234375 261.480469 C 728 243.296875 693.613281 296.183594 633 301.953125 C 572.378906 307.71875 603.917969 328.152344 656.570312 341.476562 C 709.226562 354.792969 593.425781 360.164062 594.121094 326.554688 C 594.121094 326.554688 589.113281 348.664062 603.761719 411.851562 C 618.421875 475.035156 570.605469 346.484375 570.605469 346.484375 C 570.605469 346.484375 545.929688 396.84375 513.304688 414.191406 C 480.660156 431.542969 541.734375 369.179688 533.882812 348.449219 C 526.039062 327.714844 464.699219 332.464844 451.097656 345.726562 C 437.507812 358.988281 435.972656 312.636719 493.882812 304.015625 C 516.027344 300.722656 379.25 292.34375 384.128906 279.679688 C 394.542969 252.675781 472.308594 294.949219 494 269.816406 C 515.695312 244.683594 456.457031 223.671875 465.503906 213.65625 C 474.566406 203.636719 526.4375 225.109375 526.4375 225.109375 C 526.4375 225.109375 561.257812 144.554688 608.308594 141.183594 C 622.203125 140.183594 557.804688 173.875 574.796875 214.683594 C 591.78125 255.5 660.882812 183.917969 669.625 191.277344 C 678.371094 198.636719 616.222656 261.914062 616.222656 261.914062 C 616.222656 261.914062 660.285156 244.511719 664.59375 252.152344 C 668.914062 259.796875 607.5625 279.277344 607.5625 279.277344 " fill-opacity="1" fill-rule="nonzero"/></g><path fill="#fed187" d="M 241.300781 374.265625 C 241.300781 374.265625 265.753906 445.082031 290.445312 460.550781 C 315.144531 476.015625 253.855469 461.082031 228.328125 405.789062 C 202.804688 350.488281 193.988281 387.03125 198.863281 441.128906 C 203.746094 495.230469 160.308594 387.726562 192.246094 377.25 C 192.246094 377.25 169.730469 379.847656 114.980469 414.613281 C 60.238281 449.375 165.660156 361.65625 165.660156 361.65625 C 165.660156 361.65625 109.976562 355.054688 82.800781 330.011719 C 55.625 304.953125 134.683594 341.929688 151.636719 327.652344 C 168.597656 313.371094 143.792969 257.0625 126.773438 248.628906 C 109.761719 240.183594 152.972656 223.378906 180.292969 275.179688 C 190.738281 294.980469 153.316406 163.125 166.882812 163.53125 C 195.800781 164.410156 181.695312 251.8125 212.589844 263.960938 C 243.488281 276.097656 243.679688 213.234375 256.125 218.460938 C 268.578125 223.6875 265.511719 279.757812 265.511719 279.757812 C 265.511719 279.757812 353.027344 285.925781 371.800781 329.210938 C 377.347656 342 324.230469 292.386719 291.367188 321.941406 C 258.488281 351.5 348.914062 392.988281 344.867188 403.675781 C 340.820312 414.371094 260.539062 376.6875 260.539062 376.6875 C 260.539062 376.6875 291.550781 412.507812 285.773438 419.109375 C 280 425.714844 241.300781 374.265625 241.300781 374.265625 " fill-opacity="1" fill-rule="nonzero"/><path fill="#fed187" d="M 336.363281 572.992188 C 336.363281 572.992188 384.3125 563.730469 396.566406 549.210938 C 408.820312 534.691406 393.542969 572.878906 355.507812 584.265625 C 317.476562 595.648438 340.234375 604.714844 375.601562 606.542969 C 410.960938 608.378906 337.585938 626.523438 333.769531 604.933594 C 333.769531 604.933594 333.371094 619.707031 350.757812 658.257812 C 368.148438 696.796875 321.257812 620.664062 321.257812 620.664062 C 321.257812 620.664062 311.867188 655.996094 293.199219 671.238281 C 274.53125 686.480469 305.671875 638.84375 298.023438 626.578125 C 290.375 614.3125 251.75 625.140625 244.738281 635.347656 C 237.722656 645.554688 230.859375 616.117188 266.8125 603.238281 C 280.546875 598.324219 192.015625 610.339844 193.53125 601.617188 C 196.761719 583.03125 251.855469 600.1875 262.546875 581.359375 C 273.222656 562.535156 232.671875 556.621094 237.199219 549.0625 C 241.714844 541.507812 277.609375 548.648438 277.609375 548.648438 C 277.609375 548.648438 289.652344 492.714844 319.320312 484.585938 C 328.078125 482.183594 291.167969 511.898438 307.214844 535.847656 C 323.253906 559.796875 358.359375 505.238281 364.882812 508.835938 C 371.414062 512.4375 339.699219 560.796875 339.699219 560.796875 C 339.699219 560.796875 365.667969 544.066406 369.390625 548.40625 C 373.125 552.75 336.363281 572.992188 336.363281 572.992188 " fill-opacity="1" fill-rule="nonzero"/><path fill="#fed187" d="M 401.378906 151.609375 C 401.378906 151.609375 449.328125 142.351562 461.582031 127.832031 C 473.835938 113.3125 458.554688 151.5 420.523438 162.882812 C 382.488281 174.265625 405.25 183.332031 440.617188 185.164062 C 475.972656 187 402.601562 205.140625 398.78125 183.550781 C 398.78125 183.550781 398.378906 198.328125 415.769531 236.878906 C 433.160156 275.417969 386.269531 199.28125 386.269531 199.28125 C 386.269531 199.28125 376.882812 234.613281 358.210938 249.855469 C 339.546875 265.101562 370.683594 217.460938 363.035156 205.199219 C 355.390625 192.933594 316.757812 203.761719 309.75 213.964844 C 302.738281 224.175781 295.867188 194.738281 331.824219 181.859375 C 345.558594 176.941406 257.03125 188.957031 258.542969 180.238281 C 261.777344 161.652344 316.867188 178.808594 327.554688 159.980469 C 338.238281 141.15625 297.683594 135.242188 302.207031 127.679688 C 306.726562 120.128906 342.628906 127.265625 342.628906 127.265625 C 342.628906 127.265625 354.667969 71.335938 384.332031 63.207031 C 393.09375 60.800781 356.179688 90.519531 372.222656 114.46875 C 388.265625 138.417969 423.371094 83.859375 429.902344 87.453125 C 436.429688 91.054688 404.714844 139.414062 404.714844 139.414062 C 404.714844 139.414062 430.683594 122.6875 434.40625 127.027344 C 438.140625 131.367188 401.378906 151.609375 401.378906 151.609375 " fill-opacity="1" fill-rule="nonzero"/></svg>