<svg xmlns="http://www.w3.org/2000/svg" xmlns:xlink="http://www.w3.org/1999/xlink" width="1024" zoomAndPan="magnify" viewBox="0 0 768 767.999994" height="1024" preserveAspectRatio="xMidYMid meet" version="1.0"><path fill="#6e5aae" d="M 318.425781 180.769531 C 315.882812 173.246094 325.136719 165.796875 330.867188 172.75 C 332.640625 174.898438 335.164062 179.269531 337.632812 180.664062 C 339.585938 181.765625 342.148438 181.082031 344.359375 182.152344 C 349.472656 184.632812 349.027344 190.414062 352.085938 194.40625 C 353.894531 196.769531 352.691406 200.035156 350.445312 201.324219 C 350.433594 204.15625 349.085938 206.992188 346.347656 208.261719 C 339.039062 211.644531 331.21875 208.527344 326.253906 202.550781 C 321.011719 196.230469 320.941406 188.214844 318.425781 180.769531 Z M 499.726562 502.257812 C 495.164062 498.011719 488.628906 495.15625 480.171875 493.546875 C 473.339844 492.242188 469.558594 502.582031 475.371094 506.1875 C 483.230469 511.0625 487.015625 515.679688 484.539062 525.066406 C 482.652344 532.230469 477.808594 541.332031 471.34375 545.066406 C 470.742188 545.414062 470.101562 545.71875 469.480469 546.050781 C 458.289062 547.117188 447.523438 544.953125 436.730469 549.902344 C 435.246094 550.582031 433.933594 551.695312 432.910156 553.027344 C 427.386719 552.28125 422.359375 551.875 416.691406 552.664062 C 409.988281 553.59375 404.113281 555.726562 397.308594 554.046875 C 385.125 551.046875 380.886719 537.402344 372.578125 529.316406 C 364.960938 521.902344 355.320312 517.726562 357.402344 505.167969 C 359.070312 495.101562 369.496094 484.132812 377.648438 478.507812 C 393.203125 467.773438 419.121094 476.101562 430.890625 459.007812 C 433.523438 455.1875 432.0625 450.78125 427.597656 449.402344 C 412.652344 444.789062 390.777344 445.382812 375.9375 449.972656 C 359.222656 455.140625 344.515625 470.167969 336.554688 485.414062 C 329.28125 499.339844 328.617188 516.535156 336.367188 530.445312 C 340.164062 537.257812 345.789062 541.054688 351.472656 546.03125 C 358.414062 552.105469 362.078125 560.558594 368.472656 567.125 C 374.863281 573.691406 381.742188 577.328125 389.070312 579.121094 C 389.410156 580.460938 389.882812 581.71875 390.625 582.976562 C 393.394531 587.679688 398.449219 590.300781 403.855469 590.109375 C 410.582031 589.871094 416.019531 585.0625 418.972656 579.234375 C 429.382812 577.867188 439.601562 581.351562 450.242188 579.796875 C 458.441406 578.601562 466.441406 575.625 474.105469 572.570312 C 478.585938 570.785156 482.480469 568.707031 485.902344 566.339844 C 488.519531 565.128906 490.980469 563.695312 493.171875 561.964844 C 511.15625 547.769531 517.5625 523.363281 511.398438 502.253906 C 509.613281 496.144531 502.078125 497.765625 499.726562 502.257812 Z M 361.644531 270.660156 C 365.152344 268.429688 368.316406 265.785156 372.308594 264.484375 C 374.734375 263.695312 377.265625 263.363281 379.804688 263.0625 C 380.847656 264.464844 381.964844 265.902344 383.417969 267.195312 C 388.285156 271.523438 394.414062 272.265625 400.667969 272.519531 C 406.671875 272.765625 411.3125 265.804688 407.046875 260.757812 C 405.148438 258.511719 404.019531 256.285156 403.175781 253.996094 C 404.382812 253 405.554688 251.945312 406.660156 250.777344 C 416.957031 239.914062 423.109375 217.414062 408.402344 207.597656 C 408.292969 207.523438 408.179688 207.46875 408.070312 207.40625 C 408.070312 207.382812 408.074219 207.367188 408.078125 207.34375 C 408.238281 205.613281 407.886719 204.230469 407.535156 202.796875 C 411.007812 197.800781 412.402344 191.457031 407.019531 186.722656 C 403.933594 184.011719 399.605469 183.023438 395.6875 184.441406 C 392.378906 185.640625 387.859375 190.476562 384.238281 189.464844 C 378.796875 187.953125 377.457031 196 381.714844 198.332031 C 384.71875 199.976562 388.132812 200.097656 391.398438 199.148438 C 391.925781 198.992188 392.445312 198.769531 392.960938 198.535156 C 392.46875 200.375 392.417969 202.398438 392.679688 203.707031 C 393.457031 207.601562 395.96875 211.378906 398.652344 214.125 C 398.769531 214.242188 398.917969 214.34375 399.0625 214.441406 C 397.769531 222.371094 399.113281 230.195312 393.875 236.519531 C 391.746094 235.484375 389.261719 234.917969 386.542969 234.53125 C 380.523438 233.675781 377.859375 239.339844 379.058594 244.015625 C 379.054688 244.019531 379.054688 244.019531 379.050781 244.019531 C 378.902344 243.890625 378.753906 243.761719 378.605469 243.632812 C 378.652344 243.785156 378.71875 243.921875 378.769531 244.070312 C 372.867188 245.113281 366.65625 245.476562 361.328125 248.148438 C 356.902344 250.367188 353.175781 254.195312 348.589844 256.007812 C 343.296875 258.101562 338.027344 256.429688 332.960938 254.382812 C 322.238281 250.050781 307.9375 243.210938 305.664062 230.398438 C 305.023438 226.796875 299.640625 224.324219 297.3125 228.070312 C 289.550781 240.570312 295.753906 251.527344 305.328125 259.535156 C 304.863281 264.398438 305.308594 269.324219 306.699219 274.0625 C 307.757812 277.675781 309.566406 282.015625 313.671875 282.914062 C 317.816406 283.820312 321.3125 280.371094 322.480469 276.679688 C 322.820312 275.609375 322.976562 274.449219 323.1875 273.304688 C 324.5625 273.101562 325.960938 272.742188 327.285156 272.199219 C 338.523438 276.667969 350.230469 277.910156 361.644531 270.660156 Z M 241.847656 377.054688 C 242.269531 376 242.511719 374.847656 242.523438 373.667969 C 242.535156 371.84375 241.886719 370.074219 241.917969 368.253906 C 241.949219 366.75 242.769531 365.96875 243.859375 364.988281 C 246.425781 362.671875 249.179688 360.632812 250.03125 357.054688 C 250.941406 353.222656 248.78125 349.410156 244.886719 348.484375 C 241.140625 347.59375 237.726562 349.289062 235.003906 351.777344 C 233.488281 353.164062 232.011719 354.542969 230.476562 355.863281 C 230.441406 355.785156 230.417969 355.703125 230.378906 355.625 C 224.519531 344.199219 211.421875 338.628906 199.210938 337.644531 C 191.585938 337.027344 184.242188 338.199219 176.984375 339.945312 C 173.75 336.75 169.929688 334.289062 165.097656 334.246094 C 161.976562 334.21875 158.792969 335.492188 156.78125 337.921875 C 154.960938 340.121094 153.929688 343.046875 154.480469 345.867188 C 142.023438 348.644531 130.503906 349.351562 120.398438 358.4375 C 106.859375 370.613281 88.09375 406.824219 108.878906 420.601562 C 109 420.679688 109.140625 420.71875 109.269531 420.789062 C 111.261719 429.589844 119.261719 437.527344 127.375 440.613281 C 138.871094 444.984375 160.5 442.089844 165.8125 430.140625 C 166.871094 427.75 165.601562 424.996094 163.699219 423.511719 C 155.984375 417.488281 148.789062 422.550781 140.257812 423.515625 C 129.960938 424.679688 125.847656 416.738281 119.699219 410.515625 C 120.316406 404.726562 119.839844 398.785156 122.03125 392.929688 C 124.851562 385.394531 130.191406 377.25 136.921875 372.609375 C 143.484375 368.082031 152.746094 368.511719 160.3125 366.695312 C 169.371094 364.523438 178.148438 361.175781 187.382812 359.753906 C 194.917969 358.597656 207.375 357.863281 211.269531 366.140625 C 214.050781 372.0625 211.65625 377.980469 216.382812 383.769531 C 221.191406 389.660156 228.507812 390.898438 229.390625 399.640625 C 230.320312 408.832031 221.277344 418.039062 213.761719 422.070312 C 207.707031 425.316406 210.984375 434.921875 217.515625 434.675781 C 230.75 434.175781 240.8125 429.554688 247.066406 417.230469 C 252.5625 406.386719 252.222656 393.496094 246.152344 382.917969 C 244.929688 380.789062 243.492188 378.847656 241.847656 377.054688 Z M 663.566406 319.9375 C 661.867188 317.894531 659.515625 316.566406 657.242188 315.269531 C 656.609375 314.90625 655.984375 314.519531 655.375 314.109375 C 654.902344 312.316406 654.429688 310.550781 653.972656 308.835938 C 647.921875 286.140625 639.21875 260.363281 622.421875 243.320312 C 617.515625 238.339844 607.039062 242.707031 608.226562 250.054688 C 612.988281 279.484375 627.792969 306.636719 632.261719 336.449219 C 634.246094 349.695312 627.648438 355.109375 615.9375 359.730469 C 606.425781 363.488281 591.570312 369.28125 581.652344 364.359375 C 572.273438 359.707031 567.109375 347.199219 561.511719 338.9375 C 558.148438 333.976562 553.878906 329.664062 550.546875 324.726562 C 546.363281 318.527344 546.789062 313.089844 547.316406 306.007812 C 548.257812 293.289062 544.972656 282.390625 544.21875 269.972656 C 543.355469 255.816406 559.566406 253.121094 570.222656 249.230469 C 579.167969 245.964844 576.828125 233.96875 567.679688 233.289062 C 552.867188 232.1875 536.433594 235.222656 526.597656 247.398438 C 514.992188 261.761719 521.996094 278.929688 521.644531 295.300781 C 521.457031 304.171875 519.542969 312.792969 520.964844 321.695312 C 521.621094 325.785156 522.929688 329.332031 524.628906 332.644531 C 523.539062 333.28125 522.453125 333.917969 521.363281 334.554688 C 518.179688 336.417969 514.269531 338.222656 512.742188 341.832031 C 510.894531 346.203125 513.222656 350.570312 517.203125 352.695312 C 520.410156 354.402344 524.058594 354.503906 527.59375 354.191406 C 530.824219 353.90625 534.050781 353.304688 537.304688 353.367188 C 537.835938 353.375 538.367188 353.433594 538.894531 353.484375 C 546.9375 365.71875 554.191406 379.355469 566.851562 386.949219 C 567.519531 387.347656 568.203125 387.699219 568.878906 388.054688 C 569.164062 390.167969 569.601562 392.164062 570.53125 394.125 C 574.097656 401.648438 584.539062 401.503906 589.40625 395.421875 C 590.050781 394.617188 590.597656 393.769531 591.058594 392.894531 C 599.355469 392.699219 607.75 390.753906 615.71875 388.230469 C 631.054688 383.371094 647.105469 376.875 655.363281 362.113281 C 658.933594 355.734375 660.117188 348.613281 660 341.3125 C 660.953125 340.292969 661.875 339.246094 662.683594 338.109375 C 666.511719 332.746094 668.125 325.441406 663.566406 319.9375 Z M 513.023438 447.625 C 508.570312 445.71875 504.058594 448.128906 500.007812 449.855469 C 491.609375 453.441406 482.738281 455.746094 473.660156 456.761719 C 465.648438 457.660156 453.640625 457.324219 452.144531 467.902344 C 451.410156 473.097656 459.382812 474.796875 460.15625 469.574219 C 460.648438 466.257812 464.371094 465.730469 467.148438 465.457031 C 470.6875 465.109375 474.226562 464.980469 477.75 464.484375 C 484.78125 463.5 491.675781 461.707031 498.347656 459.292969 C 498.492188 459.242188 498.628906 459.175781 498.769531 459.121094 C 498.585938 459.402344 498.433594 459.695312 498.3125 460.007812 C 498.195312 460.167969 498.0625 460.320312 497.941406 460.484375 C 496.902344 461.917969 495.902344 463.386719 494.953125 464.886719 C 494.605469 465.433594 494.269531 465.988281 493.949219 466.550781 C 493.539062 467.273438 493.117188 467.933594 492.996094 468.78125 C 492.808594 470.082031 493.261719 471.316406 494.179688 472.230469 C 495.871094 473.917969 498.710938 473.796875 500.226562 471.917969 C 498.105469 474.800781 495.988281 477.6875 493.855469 480.558594 C 490.714844 484.78125 497.320312 489.691406 500.433594 485.425781 C 504.082031 480.425781 507.722656 475.421875 511.410156 470.449219 C 514.035156 466.910156 517.351562 463.261719 518.265625 458.820312 C 519.171875 454.40625 517.324219 449.464844 513.023438 447.625 Z M 513.023438 447.625 " fill-opacity="1" fill-rule="nonzero"/><path fill="#7c86e4" d="M 303.445312 248.8125 C 300.539062 244.738281 298.71875 239.640625 298.121094 234.46875 C 286.023438 232.992188 275.203125 227.746094 268.085938 217.394531 C 264.363281 211.980469 269.539062 202.199219 276.273438 205.589844 C 284.828125 209.890625 292.082031 211.308594 301.054688 207.71875 C 302.070312 207.3125 303.070312 206.878906 304.070312 206.441406 C 312.625 192.496094 332.449219 183.816406 348.507812 185.863281 C 351.867188 175.632812 358.800781 166.550781 367.9375 160.394531 C 373.382812 156.726562 380.46875 161.734375 377.75 168.460938 C 375.082031 175.054688 374.410156 181.117188 374.335938 187.039062 C 376.542969 186.933594 378.671875 186.90625 380.660156 186.976562 C 392.105469 187.371094 401.503906 193.894531 406.335938 202.636719 C 409.117188 203.382812 411.855469 203.84375 414.527344 203.304688 C 419.910156 202.21875 424.695312 198.273438 429.136719 195.007812 C 434.511719 191.046875 440.214844 198.921875 436.027344 203.785156 C 430.355469 210.371094 424.914062 215.859375 417.074219 219.355469 C 414.277344 220.605469 411.523438 221.964844 408.753906 223.253906 C 407.167969 228.535156 403.800781 233.660156 398.21875 238.042969 C 389.5 244.894531 379.761719 244.917969 370.164062 247.601562 C 370.972656 250.699219 371.707031 253.734375 371.527344 256.042969 C 370.875 264.363281 365.914062 271.269531 360.839844 277.445312 C 355.597656 283.820312 345.859375 278.886719 348.714844 270.660156 C 349.378906 268.746094 350.3125 266.570312 350.59375 264.535156 C 351.023438 261.4375 350.28125 259.632812 348.96875 257.613281 C 344.855469 259.710938 340.628906 261.519531 335.964844 262.335938 C 323.484375 264.511719 310.875 259.242188 303.445312 248.8125 Z M 542.082031 478.015625 C 531.253906 483.40625 519.828125 486.808594 508.078125 486.800781 C 509.800781 473.726562 504.933594 460.25 494.296875 451.722656 C 488.003906 446.675781 480.167969 443.664062 472.125 443.1875 C 468.425781 442.976562 464.785156 443.410156 461.203125 444.179688 C 460.929688 440.4375 461.132812 436.707031 462.152344 432.714844 C 465.382812 420.058594 477.246094 409.808594 477.285156 396.699219 C 477.296875 392.835938 474.65625 390.050781 470.871094 389.578125 C 452.667969 387.3125 433.722656 411.789062 427.734375 426.636719 C 424.460938 434.746094 422.484375 444.421875 422.429688 454.0625 C 416.449219 454.191406 410.511719 453.960938 404.582031 454.292969 C 401.597656 453.148438 398.425781 452.160156 394.898438 451.144531 C 390.636719 449.910156 386.589844 448.359375 382.425781 446.785156 C 374.101562 443.632812 370.039062 437.675781 364.488281 431.0625 C 358.667969 424.125 347.234375 427.652344 346.078125 436.535156 C 344.453125 449.046875 349.8125 462.523438 358 472.828125 C 357.203125 473.484375 356.390625 474.113281 355.617188 474.800781 C 349.53125 480.207031 343.09375 486.757812 340.769531 494.773438 C 338.332031 503.066406 342.082031 510.355469 347.574219 516.4375 C 347.761719 516.648438 347.964844 516.847656 348.15625 517.058594 C 340.785156 526.367188 334.820312 536.339844 321.507812 529.421875 C 312.398438 524.691406 303.789062 537.515625 309.824219 544.921875 C 320.441406 557.953125 335.820312 559.03125 350.90625 553.574219 C 359.257812 550.550781 366.773438 547.636719 374.382812 543.488281 C 378.945312 548.113281 383.59375 552.667969 388.738281 556.550781 C 396.429688 562.339844 405.128906 565.785156 414.339844 568.21875 C 422.011719 570.265625 429.886719 572.03125 437.867188 571.976562 C 440 571.953125 442.113281 571.726562 444.175781 571.328125 C 446.148438 581.460938 447.023438 589.632812 434.492188 595.621094 C 427.035156 599.179688 431.453125 611.160156 439.078125 610.714844 C 454.367188 609.824219 467.207031 600.90625 473.394531 586.503906 C 477.574219 576.777344 476.914062 565.59375 480.148438 555.636719 C 480.769531 553.722656 481.464844 552.035156 482.179688 550.476562 C 488.550781 549.136719 494.386719 547.125 499.570312 542.449219 C 505.441406 537.09375 509.394531 529.808594 510.964844 522.015625 C 511.105469 521.324219 511.179688 520.636719 511.277344 519.949219 C 528.332031 515.035156 541.707031 506.71875 552.722656 492.703125 C 558.089844 485.878906 550.824219 473.660156 542.082031 478.015625 Z M 679.703125 283.195312 C 664.320312 275.347656 646.007812 272.519531 628.941406 276.058594 C 627.523438 269.027344 625.601562 262.1875 622.695312 255.933594 C 623.226562 255.003906 623.695312 254.160156 624.03125 253.542969 C 627.878906 246.410156 630.304688 238.792969 630.929688 230.710938 C 631.953125 217.429688 629.160156 206.566406 620.390625 196.496094 C 613.054688 188.066406 599.617188 196.964844 605.960938 206.648438 C 610.164062 213.066406 603.476562 222.988281 596.988281 231.332031 C 585.402344 226.574219 570.980469 224.679688 558.019531 226.707031 C 554.972656 222.980469 551.707031 219.441406 548.042969 216.363281 C 538.109375 208.023438 526.480469 203.601562 513.496094 205.546875 C 504.738281 206.859375 502.488281 221.699219 512.644531 222.261719 C 523.003906 222.832031 528.527344 230.523438 532.503906 239.769531 C 527.320312 247.097656 528.164062 256.074219 529.867188 265.402344 C 523.777344 262.449219 517.273438 260.691406 510.339844 260.808594 C 496.683594 261.042969 488.1875 267.859375 482.609375 279.753906 C 478.609375 288.292969 486.640625 300.332031 496 300.101562 C 505.316406 299.871094 510.65625 297.523438 518.292969 302.496094 C 523.695312 306.011719 530.289062 310.035156 535.710938 314.648438 C 537.640625 325.679688 541.125 336.265625 548.242188 346.4375 C 550.125 349.125 552.328125 351.625 554.742188 353.96875 C 551.445312 363.566406 548.859375 374.582031 541.355469 378.410156 C 532.925781 382.707031 534.726562 398 545.679688 395.886719 C 554.527344 394.179688 563.507812 393.230469 571.058594 387.960938 C 577.273438 383.621094 580.820312 376.578125 585.277344 370.621094 C 592.957031 372.546875 600.855469 373.15625 608.292969 372.125 C 618.089844 378.761719 619.6875 383.675781 622.671875 395.644531 C 624.820312 404.246094 636.597656 406.5 643.085938 401.917969 C 645.90625 399.921875 648.003906 396.597656 648.589844 393.191406 C 648.859375 391.585938 648.824219 390.015625 648.539062 388.464844 C 649.261719 384.527344 649.605469 379.722656 649.007812 376.441406 C 647.449219 367.898438 643.511719 359.773438 638.066406 353.007812 C 639.949219 349.785156 641.507812 346.140625 642.65625 342.03125 C 645.585938 331.550781 643.441406 320.03125 639.179688 309.066406 C 650.335938 304.253906 662.839844 299.765625 670.292969 302.003906 C 681.125 305.257812 690.839844 288.878906 679.703125 283.195312 Z M 254.125 384.753906 C 246.648438 392.925781 239.03125 390.863281 231.429688 388.011719 C 227.777344 382.738281 222.914062 378.300781 217.402344 375.125 C 216.683594 372.199219 215.53125 369.410156 214.019531 366.886719 C 216.75 361.011719 218.261719 354.554688 218.3125 348.113281 C 218.425781 334.367188 211.984375 322.757812 200.734375 317.203125 C 195 314.375 187.707031 322.660156 190.75 328.714844 C 194.640625 336.449219 197 345.59375 192.136719 353.886719 C 183.578125 353.355469 174.90625 356.464844 165.695312 359.46875 C 159.371094 361.527344 152.703125 359.335938 146.167969 360.246094 C 143.164062 360.667969 140.203125 361.488281 137.320312 362.609375 C 135.261719 359.339844 132.878906 356.414062 129.550781 354.035156 C 119.75 347.023438 108.421875 347.285156 98.066406 354.5625 C 90.980469 359.535156 92.484375 371.949219 101.425781 371.980469 C 108.300781 372 111.609375 376.144531 114.128906 381.3125 C 108.320312 389.835938 104.902344 400.242188 107.453125 409.859375 C 107.429688 409.875 107.410156 409.894531 107.382812 409.910156 C 103.082031 412.492188 96.347656 413.550781 91.933594 411.785156 C 84.945312 408.988281 77.210938 419.996094 82.933594 425.835938 C 88.164062 431.175781 92.816406 435.253906 100.300781 436.25 C 106.066406 437.015625 112.105469 435.828125 117.503906 433.171875 C 119.109375 432.386719 120.710938 431.433594 122.269531 430.34375 C 127.660156 434.386719 133.8125 437.3125 139.769531 438.886719 C 141.929688 439.457031 144.046875 439.789062 146.148438 439.984375 C 145.96875 443.207031 146.105469 446.429688 146.625 449.542969 C 147.210938 453.046875 148.410156 456.128906 150.089844 459.085938 C 151.402344 461.421875 153.007812 463.511719 154.902344 465.351562 C 155.570312 466.351562 156.117188 467.121094 156.554688 467.679688 C 152.414062 475.113281 161.78125 482.398438 168.246094 477.304688 C 178.339844 469.347656 177.371094 457.765625 175.832031 446.53125 C 175.613281 444.933594 175.527344 443.5 175.554688 442.183594 C 178.851562 443.191406 182.117188 444.363281 185.535156 445.304688 C 190.804688 446.753906 196.410156 447.671875 201.992188 447.621094 C 203.195312 448.792969 204.214844 450.292969 205.304688 452 C 205.695312 455.027344 205.246094 457.988281 202.71875 459.804688 C 196.402344 464.332031 201.40625 475.496094 208.417969 472.226562 C 214.335938 469.464844 221.691406 465.601562 225.328125 459.609375 C 228.65625 454.128906 230.058594 444.585938 229.269531 438.625 C 229.160156 437.800781 229.007812 436.988281 228.816406 436.183594 C 232.597656 431.960938 235.273438 426.828125 236.792969 421.351562 C 239.582031 421.09375 242.378906 420.425781 245.160156 419.230469 C 255.980469 414.574219 262.0625 404.847656 266.492188 393.75 C 269.601562 385.964844 259.859375 378.488281 254.125 384.753906 Z M 254.125 384.753906 " fill-opacity="1" fill-rule="nonzero"/><path fill="#b9b5f9" d="M 169.386719 387.585938 C 168.253906 393.6875 163.554688 396.773438 159.148438 400.472656 C 158.957031 400.636719 158.089844 401.527344 158.253906 401.308594 C 158.09375 401.492188 157.945312 401.683594 157.800781 401.878906 C 158.253906 402.460938 158.695312 403.042969 159.183594 403.601562 C 162.707031 407.652344 165.71875 412.273438 164.082031 417.917969 C 162.261719 424.199219 155.851562 427.625 149.628906 427.105469 C 149.320312 427.085938 149.019531 427.0625 148.714844 427.007812 C 148.492188 426.976562 148.269531 426.980469 148.046875 426.9375 C 142.71875 425.894531 137.976562 422.097656 134.949219 417.609375 C 132.886719 415.039062 131.230469 412.152344 130.109375 409.105469 C 125.898438 397.660156 130.121094 383.90625 139.765625 376.53125 C 143.589844 373.605469 148.359375 371.84375 152.867188 372.355469 C 155.546875 371.871094 158.316406 372.046875 160.859375 373.191406 C 166.445312 375.699219 170.566406 381.21875 169.386719 387.585938 Z M 183.882812 373.3125 C 175.125 373.3125 174.398438 386.933594 183.199219 386.933594 C 191.957031 386.933594 192.679688 373.3125 183.882812 373.3125 Z M 426.757812 511.425781 C 424.367188 509.953125 421.484375 508.617188 419.785156 506.316406 C 417.867188 503.722656 418.90625 503.328125 420.835938 501.125 C 423.363281 498.25 425.65625 495.128906 426.15625 491.21875 C 426.679688 487.140625 425.269531 483.066406 422.648438 479.957031 C 417.199219 473.484375 408.484375 472.355469 401.40625 476.011719 C 393.699219 477.046875 386.769531 482.316406 383.207031 489.167969 C 379.089844 497.089844 379.285156 506.4375 382.488281 514.644531 C 385.5 522.351562 391.085938 528.695312 397.457031 533.839844 C 403.757812 538.925781 411.308594 544.039062 419.519531 545.070312 C 428.15625 546.152344 437.644531 540.898438 439.359375 531.964844 C 441.136719 522.675781 433.910156 515.824219 426.757812 511.425781 Z M 459.925781 521.566406 C 456.242188 521.566406 453.464844 525.609375 453.800781 529.019531 C 454.191406 532.984375 457.554688 535.140625 461.253906 535.140625 C 464.9375 535.140625 467.714844 531.097656 467.378906 527.691406 C 466.984375 523.722656 463.621094 521.566406 459.925781 521.566406 Z M 367.484375 215.1875 C 359.492188 211.210938 351.648438 215.253906 344.484375 218.894531 C 347.414062 216.253906 349.328125 212.679688 348.980469 208.570312 C 348.546875 203.46875 344.203125 199.878906 339.394531 199.027344 C 330.304688 197.414062 323.675781 206.402344 320.96875 213.941406 C 320.34375 215.675781 319.917969 217.527344 319.746094 219.394531 C 318.09375 225.636719 319.613281 232.574219 324.015625 237.609375 C 329.683594 244.085938 338.566406 245.949219 346.804688 245.453125 C 351.046875 245.199219 355.269531 244.296875 359.40625 243.351562 C 363.582031 242.398438 367.75 241.074219 370.917969 238.054688 C 374.335938 234.792969 376.648438 229.992188 375.597656 225.171875 C 374.605469 220.628906 371.601562 217.238281 367.484375 215.1875 Z M 602.445312 259.097656 C 595.789062 240.367188 569.6875 236.679688 557.445312 251.902344 C 556.921875 252.550781 556.445312 253.222656 555.996094 253.910156 C 551.289062 259.164062 549.488281 266.886719 549.738281 274.289062 C 549.925781 279.832031 550.664062 285.375 551.195312 290.890625 C 551.722656 296.3125 552.101562 301.820312 553.761719 307.042969 C 556.707031 316.320312 563.847656 325.304688 574.3125 325.898438 C 585.027344 326.503906 593.492188 318.226562 592.867188 307.546875 C 592.644531 303.742188 590.222656 298.542969 591.816406 294.9375 C 593.359375 291.445312 596.804688 288.753906 599.054688 285.667969 C 604.679688 277.953125 605.601562 267.972656 602.445312 259.097656 Z M 589.390625 337.996094 C 580.597656 337.996094 581.246094 351.617188 590.011719 351.617188 C 598.808594 351.617188 598.15625 337.996094 589.390625 337.996094 Z M 589.390625 337.996094 " fill-opacity="1" fill-rule="nonzero"/></svg>